<?xml version="1.0" standalone="no"?>
<!DOCTYPE svg PUBLIC "-//W3C//DTD SVG 1.1//EN" "http://www.w3.org/Graphics/SVG/1.1/DTD/svg11.dtd" >
<!--
2013-9-30: Created.
-->
<svg>
<metadata>
Created by iconfont
</metadata>
<defs>

<font id="iconfont" horiz-adv-x="1024" >
  <font-face
    font-family="iconfont"
    font-weight="500"
    font-stretch="normal"
    units-per-em="1024"
    ascent="896"
    descent="-128"
  />
    <missing-glyph />
    
    <glyph glyph-name="bin" unicode="&#58903;" d="M153.6 588.8h716.8l-102.4-614.4H256L153.6 588.8zM102.4 742.4h819.2v-102.4H102.4V742.4z"  horiz-adv-x="1024" />

    
    <glyph glyph-name="file" unicode="&#58905;" d="M614.4 793.6h5.12L819.2 604.5696V588.8h-204.8V793.6z m-51.2 0v-256h256v-563.2H153.6V793.6h409.6z"  horiz-adv-x="1024" />

    
    <glyph glyph-name="service" unicode="&#58906;" d="M281.6 819.2a204.8 204.8 0 0 0 204.8-204.8v-204.8h-204.8a204.8 204.8 0 1 0 0 409.6z m0-870.4a204.8 204.8 0 1 0 0 409.6h204.8v-204.8a204.8 204.8 0 0 0-204.8-204.8z m460.8 870.4a204.8 204.8 0 1 0 0-409.6h-204.8v204.8a204.8 204.8 0 0 0 204.8 204.8z m0-870.4a204.8 204.8 0 0 0-204.8 204.8v204.8h204.8a204.8 204.8 0 1 0 0-409.6z"  horiz-adv-x="1024" />

    
    <glyph glyph-name="chart" unicode="&#58907;" d="M563.2 790.4256A409.8048 409.8048 0 0 0 918.4256 435.2H563.2V790.4256zM512 793.6v-409.6h409.6a409.6 409.6 0 1 0-409.6 409.6z"  horiz-adv-x="1024" />

    
    <glyph glyph-name="team" unicode="&#58908;" d="M672 124.56960000000004c0 45.4656-12.8 90.9312-38.4 123.392-44.8 51.968-96 77.9776-160 77.9776H358.4c-44.8 0-83.2-13.0048-121.6-39.0144a184.6784 184.6784 0 0 1-76.8-129.8944c-6.4-58.4704 0-123.392-6.4-188.3648 6.4 0 19.2-6.5024 25.6-6.5024 76.8-19.456 147.2-38.9632 224-38.9632 44.8 0 96 0 140.8 6.5024 38.4 6.5024 76.8 19.456 115.2 32.4608 6.4 0 6.4 6.5024 6.4 13.0048 6.4 51.968 6.4 103.936 6.4 149.4016zM921.6 280.47360000000003c0 25.9584-6.4 58.4192-19.2 84.4288-38.4 77.9264-96 116.8896-179.2 116.8896H601.6c0-51.9168-19.2-97.4336-57.6-129.8944 6.4 0 12.8-6.5024 12.8-6.5024 32-12.9536 64-32.4608 89.6-58.4704 38.4-45.4656 57.6-97.4336 57.6-155.8528v-45.4656c32 6.5024 57.6 6.5024 89.6 12.9536 38.4 6.5024 83.2 19.5072 121.6 39.0144 6.4 0 6.4 6.4512 6.4 12.9536v129.9456z m-505.6 51.968c83.2 0 153.6 71.424 147.2 155.8528 0 84.48-70.4 149.4016-147.2 149.4016-83.2 0-153.6-64.9216-153.6-149.4016 6.4-84.4288 70.4-155.8528 153.6-155.8528zM601.6 501.248c19.2-6.5024 38.4-13.0048 64-13.0048 83.2 0 153.6 71.4752 147.2 155.904C812.8 728.6784 742.4 793.6 665.6 793.6c-83.2 0-153.6-64.9728-153.6-149.4016 51.2-25.9584 83.2-77.9264 89.6-142.8992z"  horiz-adv-x="1024" />

    
    <glyph glyph-name="picture" unicode="&#58909;" d="M1024.000465 443.345455L878.127011 570.181818l-30.533818-35.141818L1024.000465 381.672727V104.72727299999997a93.090909 93.090909 0 0 0-93.090909-93.090909H93.091375c-5.213091 0-10.379636 0.465455-15.36 1.256727l259.863272 311.482182-34.071272 31.744-269.637819-323.211637A92.904727 92.904727 0 0 0 0.000465 104.72727299999997V663.272727a93.090909 93.090909 0 0 0 93.09091 93.090909h837.818181a93.090909 93.090909 0 0 0 93.090909-93.090909v-219.927272zM232.727738 430.545455a93.090909 93.090909 0 1 1 0 186.181818 93.090909 93.090909 0 0 1 0-186.181818z m300.357818-272.756364l-1.210181-1.489455 33.978181-31.744 315.345455 377.949091-34.024727 31.697455-284.253091-340.712727-228.398546 198.609454-30.580363-35.141818 229.143272-199.214546z"  horiz-adv-x="1024" />

    
    <glyph glyph-name="data" unicode="&#58910;" d="M204.8 588.8a102.4 102.4 0 0 0 102.4-102.4v-409.6H102.4V486.4a102.4 102.4 0 0 0 102.4 102.4z m307.2 102.4a102.4 102.4 0 0 0 102.4-102.4v-512H409.6V588.8a102.4 102.4 0 0 0 102.4 102.4zM51.2 25.600000000000023h921.6v-102.4H51.2v102.4zM819.2 793.6a102.4 102.4 0 0 0 102.4-102.4v-614.4h-204.8V691.2a102.4 102.4 0 0 0 102.4 102.4z"  horiz-adv-x="1024" />

    
    <glyph glyph-name="plus-bold" unicode="&#58911;" d="M418.909091 477.090909V709.818182a46.545455 46.545455 0 0 0 46.545454 46.545454h139.636364a46.545455 46.545455 0 0 0 46.545455-46.545454v-232.727273h232.727272a46.545455 46.545455 0 0 0 46.545455-46.545454v-139.636364a46.545455 46.545455 0 0 0-46.545455-46.545455h-232.727272v-232.727272a46.545455 46.545455 0 0 0-46.545455-46.545455h-139.636364a46.545455 46.545455 0 0 0-46.545454 46.545455v232.727272H186.181818a46.545455 46.545455 0 0 0-46.545454 46.545455v139.636364a46.545455 46.545455 0 0 0 46.545454 46.545454h232.727273z"  horiz-adv-x="1024" />

    
    <glyph glyph-name="setting" unicode="&#58912;" d="M919.970909 461.777455c0.372364-1.722182 8.238545-43.473455 8.238546-76.939637s-7.912727-75.170909-8.238546-76.893091c-4.654545-24.669091-19.874909-40.680727-38.725818-40.680727h-3.956364a95.232 95.232 0 0 1-95.232-94.952727c0-16.756364 7.959273-35.514182 8.331637-36.305455a51.2 51.2 0 0 0-17.408-61.905454l-1.489455-0.977455-100.305454-55.109818c-6.330182-2.699636-13.265455-4.189091-20.619637-4.189091-15.685818 0-30.999273 6.562909-40.96 17.454545-10.798545 11.915636-48.314182 45.707636-77.451636 45.707637-26.903273 0-63.488-30.208-77.032727-44.730182-14.615273-15.965091-41.658182-21.690182-61.672728-12.893091l-1.442909 0.651636-96.721454 54.085819a51.2 51.2 0 0 0-17.314909 61.998545c0.325818 0.744727 8.331636 19.549091 8.331636 36.212364 0 52.363636-42.775273 94.952727-95.278546 94.952727H187.578182c-19.409455 0-34.629818 15.965091-39.284364 40.680727-0.372364 1.722182-8.238545 43.426909-8.238545 76.893091 0 33.466182 7.912727 75.217455 8.238545 76.939637 4.654545 24.669091 19.874909 40.634182 38.679273 40.634181h4.002909a95.232 95.232 0 0 1 95.278545 94.952728c0 16.802909-8.005818 35.514182-8.378181 36.305454a51.2 51.2 0 0 0 17.454545 61.905455l1.536 1.024 102.120727 55.761454c19.921455 8.517818 46.638545 2.746182 61.300364-12.660363 10.705455-11.170909 47.476364-42.961455 75.869091-42.961455 27.927273 0 64.698182 31.185455 75.310545 42.123636 14.708364 15.266909 41.704727 20.759273 61.44 12.19491l1.396364-0.698182 98.629818-54.737455c19.549091-13.637818 26.996364-40.308364 17.314909-62.045091-0.279273-0.744727-8.238545-19.595636-8.238545-36.165818 0-52.410182 42.728727-94.952727 95.232-94.952727h3.397818c19.456 0 34.629818-16.011636 39.284364-40.680727zM532.48 525.125818a140.148364 140.148364 0 0 1-140.194909-139.776 140.101818 140.101818 0 0 1 140.194909-139.729454 140.101818 140.101818 0 0 1 140.194909 139.729454 140.148364 140.148364 0 0 1-140.194909 139.776z m83.037091-139.776c0-45.614545-37.236364-82.757818-83.037091-82.757818a82.990545 82.990545 0 0 0-82.990545 82.757818 82.990545 82.990545 0 1 0 166.074181 0z"  horiz-adv-x="1024" />

    
    <glyph glyph-name="upload" unicode="&#58913;" d="M358.4 486.4H153.6l322.2016 322.2016a51.2 51.2 0 0 0 72.3968 0L870.4 486.4h-204.8v-460.8H358.4V486.4zM204.8-25.6h614.4v-102.4H204.8v102.4z"  horiz-adv-x="1024" />

    
    <glyph glyph-name="working-table" unicode="&#58914;" d="M716.8 76.79999999999995h153.6v-102.4H153.6v102.4h153.6v44.3904H51.2V742.4h921.6v-621.2096h-256V76.79999999999995zM256 537.6v-51.2h512V537.6H256z m0-204.8v-51.2h512v51.2H256z"  horiz-adv-x="1024" />

    
    <glyph glyph-name="wx-mp" unicode="&#58915;" d="M512-76.8a460.8 460.8 0 1 0 0 921.6 460.8 460.8 0 0 0 0-921.6z m111.4112 493.9264H400.5888c-43.2128 0-78.336 35.1232-78.336 78.336 0 43.1616 35.1232 78.2848 78.336 78.2848 43.1616 0 78.2848-35.1232 78.2848-78.336a33.1264 33.1264 0 0 1 66.2528 0A144.7424 144.7424 0 0 1 400.5888 640 144.7424 144.7424 0 0 1 256 495.4112a144.7424 144.7424 0 0 1 144.5888-144.5376h222.8224c43.2128 0 78.336-35.1232 78.336-78.336 0-43.1616-35.1232-78.2848-78.336-78.2848-43.1616 0-78.2848 35.1232-78.2848 78.336a33.1264 33.1264 0 0 1-66.2528 0A144.7424 144.7424 0 0 1 623.4112 128 144.7424 144.7424 0 0 1 768 272.5888a144.7424 144.7424 0 0 1-144.5888 144.5376z"  horiz-adv-x="1024" />

    
    <glyph glyph-name="space" unicode="&#58916;" d="M102.4 742.4h256.256l108.1344-102.4H921.6a51.2 51.2 0 0 0 51.2-51.2v-512a51.2 51.2 0 0 0-51.2-51.2H102.4a51.2 51.2 0 0 0-51.2 51.2V691.2a51.2 51.2 0 0 0 51.2 51.2z m358.4-204.8v-51.2h358.4V537.6H460.8z"  horiz-adv-x="1024" />

    
    <glyph glyph-name="space-open" unicode="&#58917;" d="M921.6 332.79999999999995h-358.4V384h358.4v-51.2zM338.2272 691.2L431.616 602.7776 446.4128 588.8H870.4v-153.6H517.9904L409.856 537.6H195.584a51.2 51.2 0 0 1-50.176-41.1648L102.4 281.6V691.2h235.8272zM921.6 435.2V588.8a51.2 51.2 0 0 1-51.2 51.2H466.7904L358.656 742.4H102.4a51.2 51.2 0 0 1-51.2-51.2v-614.4a51.2 51.2 0 0 1 51.2-51.2h779.2128a51.1488 51.1488 0 0 1 49.664 38.8096l76.8 307.2A51.2 51.2 0 0 1 958.4128 435.2H921.6z"  horiz-adv-x="1024" />

    
    <glyph glyph-name="wx-mp-open" unicode="&#58918;" d="M512-76.79999999999995a460.8 460.8 0 1 0 0 921.6 460.8 460.8 0 0 0 0-921.6z m111.4112 493.9264H400.5888c-43.2128 0-78.336 35.1232-78.336 78.336 0 43.1616 35.1232 78.2848 78.336 78.2848 43.1616 0 78.2848-35.1232 78.2848-78.336a33.1264 33.1264 0 0 1 66.2528 0A144.7424 144.7424 0 0 1 400.5888 640 144.7424 144.7424 0 0 1 256 495.4112a144.7424 144.7424 0 0 1 144.5888-144.5376h222.8224c43.2128 0 78.336-35.1232 78.336-78.336 0-43.1616-35.1232-78.2848-78.336-78.2848-43.1616 0-78.2848 35.1232-78.2848 78.336a33.1264 33.1264 0 0 1-66.2528 0A144.7424 144.7424 0 0 1 623.4112 128 144.7424 144.7424 0 0 1 768 272.5888a144.7424 144.7424 0 0 1-144.5888 144.5376z"  horiz-adv-x="1024" />

    
    <glyph glyph-name="clouddown" unicode="&#58881;" d="M102.9632 367.6672c0-83.8144 66.816-150.8864 148.48-150.8864h504.5248c89.088 0 163.2256 72.6528 163.2256 165.7856 0 72.704-46.336 136.0384-113.152 158.4128-9.2672 50.2784-53.76 91.2896-107.5712 91.2896-18.5856 0-33.3824-5.5808-48.2304-13.056-31.5392 74.5472-105.7792 122.9824-189.2352 122.9824-115.0464 0-209.6128-96.8704-209.6128-216.1152v-5.632c-81.6128 0-148.4288-68.9152-148.4288-152.7808zM462.4384 136.49919999999997V385.1264c0 24.6784 16.9984 41.8304 41.5744 41.8304 24.2176 0 42.0864-17.664 42.0864-41.8304v-248.6272l27.1872 29.9008c9.3184 9.3696 18.5856 14.0288 29.5424 14.0288 23.9616 0 43.776-18.5344 43.776-41.8304 0-11.264-4.3008-21.6576-11.776-29.184l-100.1984-112.7424a47.7184 47.7184 0 0 0-30.6688-11.4688 44.1344 44.1344 0 0 0-31.8464 12.9536l-101.6832 112.7936c-5.7856 9.6768-8.704 17.408-8.704 27.648a42.496 42.496 0 0 0 41.6768 41.8304c11.3664 0 23.04-5.3248 32.256-14.592l26.7776-29.3376z"  horiz-adv-x="1024" />

    
    <glyph glyph-name="edit-o" unicode="&#58892;" d="M813.98559738 726.3556369400001l69.00806014-69.00806011-364.01599182-364.01599183-115.44053913-46.37146395 46.37146391 115.3795241 364.0770069 364.01599179z m155.83252484 86.82446473a48.81206729 48.81206729 0 0 0 0-69.00806013l-46.37146392-46.37146394-69.00806015 69.00806014 46.37146392 46.37146393a48.81206729 48.81206729 0 0 0 69.00806015 0zM887.26471342-50.73247431000004h-732.18100938c-50.45947457 0-91.52262617 39.35472924-91.52262615 87.67867587V723.42691293C63.56107789 771.75085955 104.62422949 811.1055887800001 155.08370404 811.1055887800001h430.40040336v-61.01508408H155.08370404c-16.77914814 0-30.50754206-11.95895648-30.50754207-26.66359177v-686.48071137c0-14.70463527 13.72839391-26.66359177 30.50754207-26.66359176h732.18100938c16.77914814 0 30.50754206 11.95895648 30.50754203 26.66359176v457.43008561h61.01508415v-457.43008561c0-48.3239466-41.06315161-87.67867587-91.52262618-87.67867587z"  horiz-adv-x="1024" />

    
    <glyph glyph-name="share-o" unicode="&#58893;" d="M381.23704785 457.27530258c10.46790037-22.19423685 16.35966942-47.07695082 16.35966943-73.27530258 0-22.88065653-4.46172802-44.61728023-12.58436109-64.63785473l266.96006022-118.80780909a171.60492409 171.60492409 0 1 0-21.56501881-53.02592158l-275.82631462 122.81192403a171.60492409 171.60492409 0 1 0-6.86419696 234.64113283l283.14812471 126.07241756a171.60492409 171.60492409 0 1 0 22.13703522-52.79711498l-271.7649981-120.98147146zM798.00820681 555.6049240899999a114.40328272 114.40328272 0 1 1 0 228.80656539 114.40328272 114.40328272 0 0 1 0-228.80656539z m0-559.66085906a114.40328272 114.40328272 0 1 1 0 228.80656541 114.40328272 114.40328272 0 0 1 0-228.80656541zM225.99179319 269.59671728a114.40328272 114.40328272 0 1 1 0 228.80656544 114.40328272 114.40328272 0 0 1 0-228.80656544z"  horiz-adv-x="1024" />

    
    <glyph glyph-name="setting-o" unicode="&#58894;" d="M475.45016217-15.18254798999999c17.64648292-1.60879617 35.44379047-2.0109952 53.24109802-1.30714688a227.24245806 227.24245806 0 0 0 105.42642356 82.19942897 228.14740589 228.14740589 0 0 0 133.47980667 9.55222721c13.67476739 11.26157314 26.64568645 23.52864388 38.71165768 36.60011272a232.52132045 232.52132045 0 0 0 17.14373413 133.53008152 231.76719726 231.76719726 0 0 0 87.72966576 102.05800662c1.65907104 17.64648292 2.06127009 35.49406534 1.35742176 53.2913729a226.78998414 226.78998414 0 0 0-82.19942896 105.42642358 227.99658124 227.99658124 0 0 0-9.55222722 133.47980665 397.92567599 397.92567599 0 0 1-36.60011271 38.71165769 232.47104558 232.47104558 0 0 0-133.47980666 17.1437341 231.96829677 231.96829677 0 0 0-102.15855637 87.72966579 416.22573234 416.22573234 0 0 1-53.24109802 1.30714687 227.74520685 227.74520685 0 0 0-105.42642356-82.19942896 228.09713102 228.09713102 0 0 0-133.47980667-9.55222722c-13.67476739-11.26157314-26.64568645-23.478369-38.6613828-36.54983784 7.54123201-45.19711721 1.70934592-91.04780786-17.19400901-133.53008153a232.26994607 232.26994607 0 0 0-87.72966576-102.15855637c-1.65907104-17.59620803-2.06127009-35.39351559-1.35742176-53.19082313a227.04135852 227.04135852 0 0 0 82.24970385-105.47669845c16.49016067-43.13584711 19.75802788-88.9362629 9.55222721-133.47980667 11.21129826-13.62449251 23.52864388-26.59541157 36.54983783-38.6613828a232.87324462 232.87324462 0 0 0 133.47980666-17.19400901 231.96829677 231.96829677 0 0 0 102.15855637-87.72966576z m36.29846342-53.2913729c-18.45088099 0-36.85148711 1.10604735-55.00071883 3.36841696l-12.92064417 1.60879616-6.43518465 11.41239779a180.58736931 180.58736931 0 0 1-85.01482225 77.42331536 180.33599491 180.33599491 0 0 1-114.52617687 11.46267265l-12.76981953-2.96621791-9.85387652 8.64727937a448.45193049 448.45193049 0 0 0-60.68178026 64.15074701l-8.04398082 10.40690018 3.72034109 12.66926977a176.41455427 176.41455427 0 0 1-4.72583871 113.67150392 175.66043106 175.66043106 0 0 1-72.54665198 87.57884112l-11.26157315 6.88765857-1.0054976 13.22229348a453.57996825 453.57996825 0 0 0 2.21209473 88.23241458l1.60879616 12.92064417 11.41239779 6.43518466a180.73819395 180.73819395 0 0 1 77.42331536 84.96454736c16.23878626 36.44928806 20.16022692 76.06589359 11.41239779 114.52617687l-2.91594305 12.76981953 8.64727937 9.85387652c19.25527909 22.32204677 40.92375241 42.73364807 64.15074701 60.68178026l10.35662529 8.04398082 12.66926979-3.72034109c37.65588519-11.01019874 76.92056656-9.40140257 113.67150389 4.72583871a176.26372963 176.26372963 0 0 1 87.62911602 72.54665198l6.8373837 11.26157315 13.22229348 1.0054976a461.52339932 461.52339932 0 0 0 88.23241457-2.16181985l12.92064417-1.65907104 6.43518465-11.36212292c19.25527909-34.48856775 48.71635881-61.33535373 85.06509714-77.42331535 36.29846343-16.23878626 75.86479406-20.10995203 114.47590198-11.41239777l12.76981953 2.91594304 9.85387652-8.59700449c22.32204677-19.30555395 42.63309834-40.97402729 60.68178026-64.25129678l8.04398082-10.35662529-3.72034109-12.61899491a176.41455427 176.41455427 0 0 1 4.72583871-113.72177877c14.07696642-36.75093735 39.21440646-67.06669006 72.54665198-87.52856626l11.26157315-6.93793346 1.0054976-13.22229348a453.57996825 453.57996825 0 0 0-2.21209473-88.18213968l-1.60879616-12.97091906-11.41239779-6.38490977a180.73819395 180.73819395 0 0 1-77.42331536-85.01482225 180.73819395 180.73819395 0 0 1-11.41239779-114.47590198l2.91594305-12.82009444-8.59700449-9.90415138a448.04973145 448.04973145 0 0 0-64.20102189-60.58123051l-10.35662529-8.14453057-12.66926979 3.77061601a177.06812772 177.06812772 0 0 1-113.67150389-4.72583875 176.51510403 176.51510403 0 0 1-87.62911602-72.54665198l-6.8373837-11.21129826-13.22229348-1.05577249a475.60036574 475.60036574 0 0 0-33.23169574-1.20659711zM512 208.03791965000005a175.96208035 175.96208035 0 1 0 0 351.9241607 175.96208035 175.96208035 0 0 0 0-351.9241607z m0 50.27488009a125.68720026 125.68720026 0 1 1 0 251.37440052 125.68720026 125.68720026 0 0 1 0-251.37440052z"  horiz-adv-x="1024" />

    
    <glyph glyph-name="link-o" unicode="&#58895;" d="M668.59684923 776.5965387a150.5732659 150.5732659 0 0 0 106.68329557 44.04079497c38.61110791 0 77.27249071-14.68026498 106.68329555-44.04079497a151.22683934 151.22683934 0 0 0 0-213.36659114l-177.77197601-177.72170115a149.91969246 149.91969246 0 0 0-114.47590198-43.33694663l78.88128687 78.88128684 5.22858752 5.22858753 172.54338849 172.54338851c39.21440646 39.16413161 39.21440646 102.91267955 0 142.17736092a100.60003508 100.60003508 0 0 1-142.1773609 0l-172.5433885-172.59366337-5.22858754-5.17831265-78.88128687-78.93156178a149.91969246 149.91969246 0 0 0 43.33694666 114.52617688l177.72170114 177.77197604z m-351.37113701-351.42141189a149.51749342 149.51749342 0 0 0 114.475902 43.28667176l-78.93156178-78.93156176-5.17831265-5.12803778L175.04835129 211.85881055000004a100.60003508 100.60003508 0 0 1 0-142.2276358c39.16413161-39.21440646 102.91267955-39.21440646 142.17736093 0l172.54338847 172.59366337 5.17831269 5.12803777 78.93156175 78.93156175a149.96996733 149.96996733 0 0 0-43.33694666-114.42562709l-177.77197603-177.72170117a150.92519007 150.92519007 0 0 0-213.26604137 0 150.92519007 150.92519007 0 0 0 0 213.21576651l177.72170115 177.82225092z m262.53542389 84.71317296a25.03689029 25.03689029 0 1 0 35.54434021-35.54434023l-177.72170114-177.72170115a25.23798981 25.23798981 0 0 0-35.59461512 35.54434021l177.77197605 177.72170117z"  horiz-adv-x="1024" />

    
    <glyph glyph-name="more-o" unicode="&#58896;" d="M140.18933117 298.19753797a85.80246203 85.80246203 0 1 0 0 171.60492406 85.80246203 85.80246203 0 0 0 0-171.60492406z m371.81066883 0a85.80246203 85.80246203 0 1 0 0 171.60492406 85.80246203 85.80246203 0 0 0 0-171.60492406z m371.81066883 0a85.80246203 85.80246203 0 1 0 0 171.60492406 85.80246203 85.80246203 0 0 0 0-171.60492406z"  horiz-adv-x="1024" />

    
    <glyph glyph-name="bin-o" unicode="&#58897;" d="M256.19425984 670.00820681l67.783945 171.60492406h387.99873333v-57.20164139h-349.04441556l-45.18929665-114.40328267H969.61313087v-57.2016414H54.38686913v57.2016414h201.80739071zM397.59671728 441.20164137h57.20164135v-286.00820678h-57.20164135v286.00820678z m171.60492409 0h57.20164135v-286.00820678h-57.20164135v286.00820678z m192.14031332-403.44317652l68.0699532 511.38267374h54.39876094L812.07981056-16.41148948H211.92018944L140.18933117 549.08393695h56.34361676l66.06789574-511.3254721h498.74111102z"  horiz-adv-x="1024" />

    


  </font>
</defs>
</svg>
